<svg width="301" height="45" viewBox="0 0 301 45" fill="none" xmlns="http://www.w3.org/2000/svg">
<path d="M18.6328 25.2656C18.6328 29.3281 18.0234 32.2109 16.8047 33.9141C15.5859 35.6016 13.9922 36.4453 12.0234 36.4453C9.77344 36.4453 7.96875 35.3047 6.60938 33.0234V36H0.304688V0.234375H6.60938V12.5156C7.96875 10.2188 9.77344 9.07031 12.0234 9.07031C13.9922 9.07031 15.5859 9.92187 16.8047 11.625C18.0234 13.3281 18.6328 16.2188 18.6328 20.2969V25.2656ZM12.3516 24.375V21.1641C12.3516 18.6953 12.1016 16.9688 11.6016 15.9844C11.1172 15 10.4141 14.5078 9.49219 14.5078C8.08594 14.5078 7.125 15.5078 6.60938 17.5078V28.0547C7.14062 30.0547 8.10156 31.0547 9.49219 31.0547C10.4141 31.0547 11.1172 30.5547 11.6016 29.5547C12.1016 28.5547 12.3516 26.8281 12.3516 24.375ZM42.1406 25.2422C42.1406 29.2891 41.2891 32.1719 39.5859 33.8906C37.8984 35.5938 35.7031 36.4453 33 36.4453C30.2969 36.4453 28.0938 35.5938 26.3906 33.8906C24.6875 32.1719 23.8359 29.2891 23.8359 25.2422V20.2266C23.8359 16.1641 24.6875 13.2734 26.3906 11.5547C28.0938 9.83594 30.2969 8.97656 33 8.97656C35.7031 8.97656 37.8984 9.83594 39.5859 11.5547C41.2891 13.2734 42.1406 16.1641 42.1406 20.2266V25.2422ZM35.8594 25.3125V20.2969C35.8594 17.8906 35.6328 16.3047 35.1797 15.5391C34.7266 14.7578 34 14.3672 33 14.3672C32 14.3672 31.2656 14.7578 30.7969 15.5391C30.3438 16.3047 30.1172 17.8906 30.1172 20.2969V25.3125C30.1172 27.5938 30.3438 29.125 30.7969 29.9062C31.2656 30.6719 32 31.0547 33 31.0547C34 31.0547 34.7266 30.6719 35.1797 29.9062C35.6328 29.125 35.8594 27.5938 35.8594 25.3125ZM68.0859 13.9453L62.1094 16.6641C61.5312 15.2266 60.7188 14.5078 59.6719 14.5078C57.4375 14.5078 56.3203 16.3672 56.3203 20.0859V36H50.0156V9.46875H56.3203V12.5156C57.7422 10.1562 59.625 8.97656 61.9688 8.97656C64.4688 8.97656 66.5078 10.6328 68.0859 13.9453ZM90.9375 13.9922H89.5547L88.5 13.7578C88.9531 14.6172 89.1797 15.6484 89.1797 16.8516C89.1797 18.8984 88.4297 20.6016 86.9297 21.9609C85.4453 23.3203 83.3438 24 80.625 24C80.0469 24 79.4531 23.9922 78.8438 23.9766C78 24.8203 77.5781 25.625 77.5781 26.3906C77.5781 26.9531 77.8281 27.3672 78.3281 27.6328C78.8281 27.8984 79.5469 28.0312 80.4844 28.0312H82.2188C85.2188 28.0312 87.4609 28.7734 88.9453 30.2578C90.4297 31.7422 91.1719 33.6328 91.1719 35.9297C91.1719 38.4922 90.1875 40.5547 88.2188 42.1172C86.2656 43.6953 83.6016 44.4844 80.2266 44.4844C76.9922 44.4844 74.6172 43.7188 73.1016 42.1875C71.5859 40.6562 70.8281 38.8984 70.8281 36.9141C70.8281 34.4922 72.1016 32.5547 74.6484 31.1016C72.8203 30.1016 71.9062 28.7344 71.9062 27C71.9062 25.4062 72.9688 23.9766 75.0938 22.7109C72.9219 21.4297 71.8359 19.4141 71.8359 16.6641C71.8359 14.3359 72.6094 12.4922 74.1562 11.1328C75.7031 9.77344 77.8672 9.09375 80.6484 9.09375C81.3047 9.09375 82.0781 9.16406 82.9688 9.30469C84.1406 9.41406 86.7969 9.46875 90.9375 9.46875V13.9922ZM83.1328 16.4062C83.1328 15.2969 82.8984 14.4844 82.4297 13.9688C81.9766 13.4531 81.3516 13.1953 80.5547 13.1953C79.7422 13.1953 79.0938 13.4531 78.6094 13.9688C78.1406 14.4844 77.9062 15.3203 77.9062 16.4766C77.9062 17.7578 78.1406 18.6484 78.6094 19.1484C79.0938 19.6484 79.7344 19.8984 80.5312 19.8984C81.3594 19.8984 82 19.6484 82.4531 19.1484C82.9062 18.6484 83.1328 17.7344 83.1328 16.4062ZM84.8672 36.1641C84.8672 35.1484 84.5938 34.3672 84.0469 33.8203C83.5 33.2578 82.7109 32.9766 81.6797 32.9766H80.625C79.5312 32.9766 78.6719 33.2812 78.0469 33.8906C77.4219 34.5 77.1094 35.3281 77.1094 36.375C77.1094 37.2969 77.3828 38.0625 77.9297 38.6719C78.4766 39.2812 79.3828 39.5859 80.6484 39.5859C83.4609 39.5859 84.8672 38.4453 84.8672 36.1641ZM110.273 13.4062C110.273 15.0781 109.766 16.3828 108.75 17.3203C107.75 18.2422 106.492 18.7031 104.977 18.7031C103.461 18.7031 102.203 18.2422 101.203 17.3203C100.203 16.3828 99.7031 15.0781 99.7031 13.4062C99.7031 11.75 100.195 10.4609 101.18 9.53906C102.18 8.60156 103.445 8.13281 104.977 8.13281C106.492 8.13281 107.75 8.60156 108.75 9.53906C109.766 10.4766 110.273 11.7656 110.273 13.4062ZM110.273 31.1719C110.273 32.8438 109.766 34.1406 108.75 35.0625C107.75 35.9844 106.492 36.4453 104.977 36.4453C103.461 36.4453 102.203 35.9844 101.203 35.0625C100.203 34.1406 99.7031 32.8438 99.7031 31.1719C99.7031 29.5156 100.195 28.2266 101.18 27.3047C102.18 26.3672 103.445 25.8984 104.977 25.8984C106.492 25.8984 107.75 26.3672 108.75 27.3047C109.766 28.2422 110.273 29.5312 110.273 31.1719ZM139.688 0.234375L124.242 36H118.312L133.758 0.234375H139.688ZM158.016 9.17578L146.432 36H141.984L153.568 9.17578H158.016ZM171.463 32.8887C171.463 33.8027 171.129 34.6055 170.461 35.2969C169.805 35.9883 168.979 36.334 167.982 36.334C166.975 36.334 166.148 35.9883 165.504 35.2969C164.871 34.6055 164.555 33.8027 164.555 32.8887C164.555 31.9863 164.871 31.1836 165.504 30.4805C166.148 29.7773 166.975 29.4258 167.982 29.4258C168.979 29.4258 169.805 29.7832 170.461 30.498C171.129 31.2012 171.463 31.998 171.463 32.8887ZM186.07 33.6973C187.312 33.6973 188.25 33.4043 188.883 32.8184C189.527 32.2207 189.85 31.5 189.85 30.6562C189.85 29.4961 189.141 28.5938 187.723 27.9492L183.891 26.1914C181.512 25.0664 180.322 23.4609 180.322 21.375C180.322 19.7461 180.908 18.3984 182.08 17.332C183.252 16.2656 184.764 15.7324 186.615 15.7324C189.275 15.7324 191.314 16.957 192.732 19.4062L190.289 20.8828C189.551 19.2188 188.326 18.3867 186.615 18.3867C185.596 18.3867 184.787 18.6445 184.189 19.1602C183.604 19.6758 183.311 20.3145 183.311 21.0762C183.311 22.0957 183.973 22.9219 185.297 23.5547L188.918 25.2422C191.531 26.4492 192.838 28.3008 192.838 30.7969C192.838 32.2734 192.229 33.5684 191.01 34.6816C189.791 35.7832 188.133 36.334 186.035 36.334C183.105 36.334 180.814 34.9805 179.162 32.2734L181.623 30.7793C182.596 32.7246 184.078 33.6973 186.07 33.6973ZM211.646 33.2227C210.252 35.2969 208.389 36.334 206.057 36.334C204.51 36.334 203.209 35.8125 202.154 34.7695C201.111 33.7148 200.59 32.1621 200.59 30.1113V18.6504H197.25V16.1016H200.59V9.17578H203.578V16.1016H210.293V18.6504H203.578V30.3047C203.578 31.3945 203.812 32.2207 204.281 32.7832C204.75 33.3457 205.4 33.627 206.232 33.627C207.615 33.627 208.664 32.9414 209.379 31.5703L211.646 33.2227ZM228.715 27.3867C228.715 30.4336 228.088 32.6895 226.834 34.1543C225.58 35.6074 223.969 36.334 222 36.334C220.031 36.334 218.42 35.6074 217.166 34.1543C215.924 32.6895 215.303 30.4336 215.303 27.3867V24.6797C215.303 21.6328 215.924 19.3828 217.166 17.9297C218.42 16.4648 220.031 15.7324 222 15.7324C223.969 15.7324 225.58 16.4648 226.834 17.9297C228.088 19.3828 228.715 21.6328 228.715 24.6797V27.3867ZM225.727 27.3867V24.6797C225.727 22.3242 225.375 20.6953 224.672 19.793C223.98 18.8906 223.09 18.4395 222 18.4395C220.91 18.4395 220.02 18.8906 219.328 19.793C218.637 20.6953 218.291 22.3242 218.291 24.6797V27.3867C218.291 29.7422 218.637 31.3711 219.328 32.2734C220.02 33.1758 220.91 33.627 222 33.627C223.09 33.627 223.98 33.1758 224.672 32.2734C225.375 31.3711 225.727 29.7422 225.727 27.3867ZM247.717 19.459L245.115 20.6191C244.529 19.166 243.539 18.4395 242.145 18.4395C239.215 18.4395 237.75 21.1641 237.75 26.6133V36H234.762V16.1016H237.75V19.2832C238.934 16.916 240.557 15.7324 242.619 15.7324C245.01 15.7324 246.709 16.9746 247.717 19.459ZM264.012 36H261.023V33.75C259.758 35.4727 258.158 36.334 256.225 36.334C254.596 36.334 253.277 35.7773 252.27 34.6641C251.273 33.5508 250.775 32.1504 250.775 30.4629C250.775 28.7285 251.402 27.2754 252.656 26.1035C253.91 24.9316 255.75 24.3457 258.176 24.3457H261.023V22.2012C261.023 19.6934 259.834 18.4395 257.455 18.4395C255.697 18.4395 254.385 19.2129 253.518 20.7598L251.25 19.0723C252.82 16.8457 254.895 15.7324 257.473 15.7324C259.383 15.7324 260.947 16.2773 262.166 17.3672C263.396 18.457 264.012 20.0684 264.012 22.2012V36ZM261.023 31.3242V26.7539H258.176C256.746 26.7539 255.668 27.0879 254.941 27.7559C254.215 28.4238 253.852 29.3262 253.852 30.4629C253.852 32.5723 254.889 33.627 256.963 33.627C258.592 33.627 259.945 32.8594 261.023 31.3242ZM283.77 18.4746H282.732L281.115 18.3164C282.006 19.4062 282.451 20.5137 282.451 21.6387C282.451 23.1738 281.895 24.4512 280.781 25.4707C279.668 26.4902 278.145 27 276.211 27C275.496 27 274.84 27 274.242 27C273.293 27.6211 272.818 28.2188 272.818 28.793C272.818 29.3906 273.006 29.8359 273.381 30.1289C273.756 30.4102 274.377 30.5508 275.244 30.5508H276.896C279.381 30.5508 281.174 31.0781 282.275 32.1328C283.389 33.1875 283.945 34.5176 283.945 36.123C283.945 37.9277 283.236 39.416 281.818 40.5879C280.412 41.7715 278.555 42.3633 276.246 42.3633C273.832 42.3633 271.998 41.8184 270.744 40.7285C269.49 39.6387 268.863 38.3145 268.863 36.7559C268.863 34.7285 269.889 33.1934 271.939 32.1504C270.428 31.5176 269.672 30.5508 269.672 29.25C269.672 27.9375 270.475 26.8242 272.08 25.9102C270.439 24.8086 269.619 23.2793 269.619 21.3223C269.619 19.6934 270.199 18.3691 271.359 17.3496C272.52 16.3301 274.143 15.8203 276.229 15.8203C276.838 15.8203 278.32 15.9141 280.676 16.1016H283.77V18.4746ZM279.568 21.3047C279.568 20.5078 279.275 19.8105 278.689 19.2129C278.104 18.6035 277.225 18.2988 276.053 18.2988C274.857 18.2988 273.967 18.5859 273.381 19.1602C272.807 19.7227 272.52 20.4551 272.52 21.3574C272.52 22.3887 272.824 23.1738 273.434 23.7129C274.043 24.252 274.898 24.5215 276 24.5215C277.195 24.5215 278.086 24.2461 278.672 23.6953C279.27 23.1328 279.568 22.3359 279.568 21.3047ZM280.869 36.123C280.869 35.2441 280.576 34.5469 279.99 34.0312C279.416 33.5156 278.385 33.2578 276.896 33.2578H275.701C274.342 33.2578 273.375 33.5684 272.801 34.1895C272.227 34.7988 271.939 35.584 271.939 36.5449C271.939 37.541 272.314 38.3086 273.064 38.8477C273.814 39.3984 274.805 39.6738 276.035 39.6738C279.258 39.6738 280.869 38.4902 280.869 36.123ZM300.697 26.6484H290.273V27.2461C290.273 29.8125 290.648 31.5176 291.398 32.3613C292.16 33.2051 293.18 33.627 294.457 33.627C296.098 33.627 297.404 32.8008 298.377 31.1484L300.803 32.6953C299.279 35.1211 297.1 36.334 294.264 36.334C292.236 36.334 290.566 35.6074 289.254 34.1543C287.941 32.7012 287.285 30.3984 287.285 27.2461V24.8379C287.285 21.6855 287.941 19.3828 289.254 17.9297C290.566 16.4648 292.148 15.7324 294 15.7324C295.969 15.7324 297.574 16.4062 298.816 17.7539C300.07 19.1016 300.697 21.293 300.697 24.3281V26.6484ZM297.709 24.0117C297.709 21.9844 297.357 20.5488 296.654 19.7051C295.963 18.8613 295.078 18.4395 294 18.4395C292.969 18.4395 292.09 18.8613 291.363 19.7051C290.637 20.5488 290.273 21.9844 290.273 24.0117H297.709Z" fill="white"/>
</svg>
